<svg width="39" height="32" viewBox="0 0 39 32" fill="none" xmlns="http://www.w3.org/2000/svg">
<rect x="0.5" width="38" height="32" rx="4" fill="#E9ECEF"/>
<path d="M15.914 20.612C15.6807 20.612 15.4893 20.5513 15.34 20.43C15.1907 20.2993 15.102 20.1407 15.074 19.954C15.0553 19.758 15.1207 19.562 15.27 19.366L18.476 15.096V15.866L15.424 11.778C15.2747 11.5727 15.2093 11.3767 15.228 11.19C15.2467 10.994 15.3307 10.8353 15.48 10.714C15.6293 10.5833 15.816 10.518 16.04 10.518C16.2267 10.518 16.39 10.5647 16.53 10.658C16.6793 10.742 16.8287 10.8867 16.978 11.092L19.498 14.564H18.924L21.43 11.092C21.5793 10.8867 21.724 10.742 21.864 10.658C22.0133 10.5647 22.186 10.518 22.382 10.518C22.6153 10.518 22.8067 10.5787 22.956 10.7C23.1053 10.8213 23.1893 10.98 23.208 11.176C23.2267 11.3627 23.1567 11.5633 22.998 11.778L19.946 15.866V15.096L23.138 19.366C23.2873 19.562 23.3527 19.758 23.334 19.954C23.3153 20.1407 23.2313 20.2993 23.082 20.43C22.9327 20.5513 22.7367 20.612 22.494 20.612C22.3167 20.612 22.1533 20.5653 22.004 20.472C21.864 20.3787 21.7147 20.2293 21.556 20.024L18.896 16.384H19.512L16.866 20.024C16.7167 20.2293 16.5673 20.3787 16.418 20.472C16.2687 20.5653 16.1007 20.612 15.914 20.612Z" fill="#868E96"/>
</svg>
